<?xml version="1.0" encoding="UTF-8" standalone="no"?>
<!-- Created with Inkscape (http://www.inkscape.org/) -->

<svg
   width="536.11072mm"
   height="535.06781mm"
   viewBox="0 0 536.11073 535.06781"
   version="1.1"
   id="svg5"
   inkscape:version="1.1.1 (3bf5ae0d25, 2021-09-20)"
   sodipodi:docname="Pastoral_Network_Logo_Icon.svg"
   inkscape:export-filename="C:\Users\Admin\Pictures\Pastoral_Network\Pastoral_Network_Logo_Green2.png"
   inkscape:export-xdpi="96"
   inkscape:export-ydpi="96"
   xmlns:inkscape="http://www.inkscape.org/namespaces/inkscape"
   xmlns:sodipodi="http://sodipodi.sourceforge.net/DTD/sodipodi-0.dtd"
   xmlns="http://www.w3.org/2000/svg"
   xmlns:svg="http://www.w3.org/2000/svg">
   <sodipodi:namedview
      id="namedview7"
      pagecolor="#ffffff"
      bordercolor="#666666"
      borderopacity="1.0"
      inkscape:pageshadow="2"
      inkscape:pageopacity="0.0"
      inkscape:pagecheckerboard="0"
      inkscape:document-units="mm"
      showgrid="false"
      inkscape:zoom="0.056568543"
      inkscape:cx="5418.2057"
      inkscape:cy="5418.2057"
      inkscape:window-width="1920"
      inkscape:window-height="1920"
      inkscape:window-x="-9"
      inkscape:window-y="-9"
      inkscape:window-maximized="1"
      inkscape:current-layer="layer1" />
   <defs
      id="defs2" />
   <g
      inkscape:label="Layer 1"
      inkscape:groupmode="layer"
      id="layer1"
      transform="translate(-1593.0629,39.848858)">
      <g
         id="g879"
         transform="matrix(-0.55186818,0.02075724,0.02075724,0.55186818,3296.7266,607.61344)"
         style="fill:#25d366;fill-opacity:1">
         <path
            style="fill:#25d366;fill-opacity:1;stroke-width:1.97504"
            d="m 2541.6517,-302.63705 c -0.362,-1.07857 -0.156,-52.40497 0.4581,-114.05866 1.039,-104.33888 1.4069,-113.4646 5.3153,-131.84801 8.1253,-38.2185 24.7847,-78.67154 45.437,-110.33256 14.1613,-21.7098 19.459,-28.04868 43.9283,-52.56098 35.4518,-35.51419 80.0829,-63.01576 124.4202,-76.66732 12.0935,-3.72363 17.4867,-5.09762 39.7682,-10.13151 5.0354,-1.13759 18.8113,-2.83377 30.6132,-3.76931 27.6931,-2.19522 220.0822,-1.79241 223.658,0.46828 2.1962,1.3885 2.4615,6.52283 1.376,26.62965 -0.7396,13.70023 -1.7785,26.39206 -2.3087,28.20409 -0.8825,3.01596 -10.8533,3.36452 -117.9035,4.12175 l -116.9395,0.82715 -23.3044,6.21867 c -35.5374,9.48301 -71.3827,26.63089 -94.3353,45.12874 -12.1129,9.76196 -36.1957,33.88764 -43.7355,43.81335 -4.6576,6.1315 -8.9549,11.59255 -9.5495,12.13569 -0.5946,0.54313 -4.6704,6.76451 -9.0572,13.82529 -15.0438,24.21373 -25.6223,50.97416 -32.7913,82.95175 -3.9528,17.63204 -4.2472,25.19092 -4.885,125.41514 -0.3733,58.65874 -0.6574,107.76322 -0.6313,109.12106 0.06,3.10618 -58.4931,3.60557 -59.5331,0.50774 z m -84.5976,-10.28432 c -31.1684,-9.06317 -45.0834,-13.744 -48.9097,-16.45259 l -4.4713,-3.16516 0.1019,-87.26437 c 0.056,-47.99539 -0.7095,-90.37505 -1.7013,-94.177 -11.4663,-43.95311 -45.1858,-77.87311 -88.3997,-88.92538 -14.0876,-3.60299 -22.0901,-3.90158 -104.5694,-3.90158 h -89.3144 l -3.2664,-9.38145 c -7.3919,-21.22986 -14.9336,-47.19771 -14.9547,-51.4923 l -0.023,-4.58506 107.146,0.8537 c 113.6223,0.90528 107.9606,0.47276 138.7467,10.599 9.4176,3.09765 38.4085,17.55367 40.4884,20.18911 0.5431,0.6882 4.5426,3.88961 8.8877,7.11424 4.345,3.22463 11.412,9.21876 15.7044,13.32029 4.2923,4.10153 8.3901,7.45735 9.1062,7.45735 0.7161,0 2.697,-4.66604 4.402,-10.36897 4.0728,-13.62244 15.8517,-44.49455 20.1418,-52.79068 3.3878,-6.55125 3.3843,-6.56827 -2.4805,-12.04939 -19.2442,-17.98526 -58.9341,-37.53095 -96.6461,-47.5942 l -23.3044,-6.21867 -116.9395,-0.82715 c -107.0502,-0.75723 -117.021,-1.10579 -117.9035,-4.12175 -0.5302,-1.81203 -1.5691,-14.50386 -2.3087,-28.20409 -1.0854,-20.10567 -0.8201,-25.24226 1.376,-26.6349 3.617,-2.29376 194.0326,-2.7252 222.6664,-0.50455 12.3428,0.95725 26.5631,2.67164 31.6007,3.8098 22.2911,5.0363 27.6786,6.40885 39.7723,10.13254 25.495,7.85 53.4394,21.638 79.5497,39.25057 9.5347,6.43159 17.6718,11.69381 18.0824,11.69381 0.4106,0 6.5007,-7.77673 13.5336,-17.28161 16.6711,-22.53071 19.3075,-25.81818 24.6185,-30.69841 5.9132,-5.4336 5.6245,-7.38312 -1.9751,-13.33979 -38.055,-29.82779 -95.3658,-55.70781 -148.6219,-67.11365 -34.8837,-7.47103 -41.6564,-7.81398 -155.0408,-7.8504 -64.1681,-0.0205 -112.7995,-0.80516 -114.4362,-1.84617 -2.4221,-1.54039 -1.9176,-5.49624 3.3832,-26.53075 3.4264,-13.59625 7.5666,-27.92 9.2005,-31.83057 l 2.9708,-7.11011 94.3731,0.37449 c 51.9052,0.20598 104.1495,1.14505 116.0985,2.08687 54.2796,4.27828 114.9086,21.48591 163.9285,46.52586 14.7508,7.5349 49.3915,27.65078 54.3136,31.53993 1.6294,1.28747 6.962,5.50071 11.8503,9.36279 4.8882,3.86205 10.8874,8.06174 13.3315,9.33266 6.0474,3.14456 8.1556,1.98604 34.0695,-18.72201 4.9093,-3.92309 39.5407,-24.01931 54.3136,-31.51758 49.9609,-25.3586 109.3843,-42.22252 163.9285,-46.52165 11.949,-0.94182 64.1933,-1.88089 116.0985,-2.08687 l 94.3731,-0.37449 2.9708,7.11011 c 1.6339,3.91057 5.7741,18.23432 9.2005,31.83057 5.3013,21.03644 5.8055,24.99079 3.3832,26.53454 -1.6431,1.04721 -50.0198,1.81287 -114.4362,1.81119 -117.3459,-0.004 -124.9562,0.44656 -163.1554,9.63949 -18.8107,4.52694 -44.4636,12.15538 -47.1866,14.03194 -1.0863,0.7486 -6.4189,2.98488 -11.8502,4.96948 -34.3124,12.53771 -85.5339,46.09487 -117.684,77.09925 -13.2466,12.77453 -38.7149,40.84657 -42.2944,46.61843 -1.0863,1.75157 -7.8758,11.96767 -15.0878,22.70243 -14.7251,21.91785 -30.5914,52.59706 -37.1616,71.85636 -2.4087,7.06078 -5.1013,14.23618 -5.9834,15.94536 -2.7629,5.3533 -9.8805,32.35761 -14.1182,53.56539 -4.5795,22.91755 -5.5138,48.53046 -6.2176,170.43086 -0.4784,82.86724 0.4547,77.68602 -13.2709,73.69489 z m 216.2756,0.1108 c -1.494,-3.93875 0.2129,-197.17341 1.8031,-204.13254 6.5247,-28.55389 10.8366,-40.02428 23.4953,-62.50105 9.7355,-17.28649 32.4875,-43.10631 47.7696,-54.21096 4.3451,-3.15732 8.916,-6.69282 10.1574,-7.8567 4.985,-4.67346 36.3227,-18.80004 53.044,-23.91147 l 17.7754,-5.43366 107.146,-0.67896 107.146,-0.67894 v 4.1281 c 0,6.52818 -14.4095,52.57974 -18.4017,58.81044 -1.2268,1.91474 -21.4311,2.4688 -90.0262,2.4688 -81.613,0 -89.6227,0.30135 -103.6995,3.90158 -42.9846,10.99363 -76.9942,45.20546 -88.3997,88.92538 -0.9918,3.80195 -1.7572,46.24609 -1.7009,94.32031 l 0.1025,87.40764 -6.1488,3.73928 c -3.3818,2.05662 -15.6149,6.46357 -27.1847,9.79323 -30.4333,8.75838 -31.7101,8.9879 -32.8777,5.90952 z m -363.4162,-63.7645 c -10.8627,-6.97531 -20.6484,-13.41543 -21.746,-14.31136 -1.0976,-0.89594 -6.208,-5.02139 -11.3565,-9.16763 l -9.3609,-7.53864 v -30.48092 -30.48091 l -32.0944,-0.10132 -32.0944,-0.10132 -10.8628,-13.91901 c -5.9745,-7.65548 -11.7701,-14.94218 -12.8791,-16.19271 -1.1091,-1.25054 -5.0794,-7.16192 -8.8229,-13.13642 -3.7436,-5.9745 -7.4466,-11.32521 -8.229,-11.89044 -0.7824,-0.56526 -2.3449,-3.45376 -3.4722,-6.41889 l -2.0498,-5.39131 h 67.0285 c 62.8404,0 67.7078,0.25419 77.9012,4.06803 7.4728,2.79593 13.2954,6.82024 18.62,12.86928 13.4869,15.32197 14.2131,20.06152 14.0512,91.7014 -0.1081,47.75196 -0.7219,63.18804 -2.5127,63.18223 -1.3034,-0.004 -11.2575,-5.71476 -22.1202,-12.69006 z m 498.7532,-50.49217 c -0.119,-52.68574 0.379,-64.78538 2.9964,-72.78773 3.9911,-12.20185 12.495,-22.5235 24.2507,-29.43405 l 9.236,-5.42941 70.7273,-0.58728 70.7273,-0.5873 -2.4032,4.53739 c -3.6076,6.81146 -18.1611,29.88806 -20.4879,32.48659 -1.1198,1.25053 -6.9242,8.53723 -12.8987,16.19271 l -10.8628,13.91901 -32.0944,0.10132 -32.0944,0.10146 v 30.48091 30.48092 l -9.3609,7.53864 c -5.1485,4.14624 -10.2589,8.27169 -11.3565,9.16763 -6.106,4.98425 -41.8643,26.99492 -43.8662,27.00142 -1.7908,0.006 -2.4047,-15.43027 -2.5127,-63.18223 z m -248.0294,-505.89132 c -17.5623,-11.13774 -51.6771,-28.75226 -73.4003,-37.89888 -31.8485,-13.40994 -83.1202,-28.15609 -114.1222,-32.82246 -7.6039,-1.1445 -20.0466,-3.0261 -27.6505,-4.1812 -7.6039,-1.1551 -56.2279,-2.615 -108.0532,-3.2443 l -94.2279,-1.144 5.2329,-9.1022 c 6.1191,-10.6438 26.4583,-42.5048 31.5667,-49.4488 20.5524,-27.9373 59.6207,-68.8098 85.4923,-89.4404 8.147,-6.4966 16.5903,-13.2842 18.7629,-15.0835 9.3473,-7.7414 44.7039,-29.3684 64.9522,-39.7302 58.299,-29.8336 123.8737,-49.0462 179.0324,-52.4545 11.3691,-0.7025 25.1148,-1.5676 30.5462,-1.9226 18.5085,-1.2094 74.9949,2.9169 96.777,7.0696 46.8855,8.9385 80.89,19.8515 122.9393,39.4549 16.551,7.7161 51.7603,26.9794 53.827,29.4493 0.5431,0.649 5.8757,4.2325 11.8502,7.9631 5.9745,3.7307 11.3071,7.2628 11.8503,7.8491 0.5431,0.5863 9.4308,7.8083 19.7504,16.0489 28.9504,23.118 67.0502,62.6422 87.4673,90.7373 5.2999,7.293 25.611,39.1482 31.5702,49.5137 l 5.2363,9.1082 -93.2438,1.0721 c -80.8073,0.9291 -97.0635,1.629 -121.8819,5.2479 -35.0513,5.1108 -40.7359,6.37748 -77.9757,17.37441 -43.9735,12.98543 -76.2808,27.13672 -116.7377,51.13361 -9.8708,5.85492 -18.3623,10.64528 -18.8699,10.64528 -0.5076,0 -5.3183,-2.78748 -10.6905,-6.19436 z"
            id="path881" />
      </g>
      <path
         style="fill:#000000;stroke-width:1.97504"
         id="path859"
         d="" />
   </g>
</svg>