<?xml version="1.0" encoding="UTF-8"?>
<svg id="Layer_1" data-name="Layer 1" xmlns="http://www.w3.org/2000/svg" viewBox="0 0 989.9 986.76">
  <defs>
    <style>
      .cls-1 {
      fill: #343517;
      }

      .cls-1, .cls-2 {
      fill-rule: evenodd;
      }

      .cls-2 {
      fill: #4ca446;
      }
    </style>
  </defs>
  <path class="cls-1"
    d="m574.91,568.35c-32.47-44.84-85.31-199.88-72.88-240.91,43.83-114.53,130.35-176.27,259.58-185.22-108.05,14.64-186.84,73.66-236.38,177.05,26.89-21.33,83.19-36.89,168.9-46.68,68.51-4.99,130.96-42.54,187.34-112.65,26.38-41.05,41.51-94.37,45.4-159.94-34.41,34.76-68.22,52.85-101.45,54.25-324.43-11.38-433.91,105.48-380.02,290.42-49.16-58.3-138.72-81.36-268.66-69.17,42.12,68.11,119.57,105.96,232.33,113.54-23.78-43.93-63.12-69.96-118.01-78.09,134.61,2.49,148.54,118.21,167.08,182.39,50.22,173.8-115.09,105.36-233.23,114.4-79.51,6.08-56.48,34.79-224.89,29.97,100.78,40.64,95.63,17.51,195.57.21-6.96,66.73-1.76,74.05-41.46,102.94l-25.5,16.24c122.22-18.49,64.64-43.47,104.8-106.5,91.77-15.88,79.94,12.62,180.37-7.45-18.04,45.39-29.67,40.21-70.18,64.87-46.67,28.4-28.51,38.12-35.71,83.38-27.78,23.33-81.43,33.59-128.54,41.1,83.93,1.26,104.32-10.17,155.96-30.54,30.69,31.51,16.04,41.47,29.58,73.19l8.44,14.64c1.06,1.89,2.8,4.95,5.05,7.15,17.63-82.42-36.95-109.23-21.23-164.46,13.95-16.68,34.53-2.68,100.9-58.56,26.1-21.97.82-14.16,41.02-24.67,17.14,60.76-49.3,66.07-13.15,126.88,51.41,86.49,102.98,120.09,83.08,210.63,92.29-72.1-95.77-211.04-5.34-308.95,140.2,11.51,29.58,129.31,274.43,132.54-73.97-40.16-110.13,11.32-155.04-90.12,78.5,14.84,129.29,3.75,204.27,23.65-34.62-52.91-106.91-6.7-190.39-43.3-44.6-19.56-30.52-23.11-69.18-44.26-45.78-25.04-52.42-9.84-68.58-46.16,350.92,28.64,144.23,68.24,296.51,72.37-32.47-13.54-31.86-10.29-54.42-28.11-17.34-13.7-40.64-34.46-51.65-44.43,90.97-19.81,164.64,62.48,240.29.8-130.58,20.4-101.57-24.47-211.94-19.81-83.65,3.53-168.35,25.32-203.06-22.62h0Z" />
  <path class="cls-2"
    d="m176.73,275.51c42.12,68.11,119.57,105.96,232.33,113.54-23.78-43.93-63.12-69.96-118.01-78.09,52.01.96,86.01,18.83,109.21,44.1,10.29,11.21,18.46,23.87,25.14,37.15,47.22,67.2,89.67,112.47,127.36,135.82-29.49-64.14-60.57-168.11-50.73-200.6,43.83-114.53,130.35-176.27,259.58-185.22-108.05,14.64-186.84,73.66-236.38,177.05,26.89-21.33,83.19-36.89,168.9-46.68,68.51-4.99,130.96-42.54,187.34-112.65,26.38-41.05,41.51-94.37,45.4-159.94-34.41,34.76-68.22,52.85-101.45,54.25-324.43-11.38-433.91,105.48-380.02,290.42-49.16-58.3-138.72-81.36-268.66-69.17h0Z" />
</svg>